<?xml version="1.0" encoding="UTF-8" standalone="no"?><svg xmlns="http://www.w3.org/2000/svg" xmlns:xlink="http://www.w3.org/1999/xlink" contentScriptType="application/ecmascript" contentStyleType="text/css" height="371px" preserveAspectRatio="none" style="width:584px;height:371px;background:#FFFFFF;" version="1.1" viewBox="0 0 584 371" width="584px" zoomAndPan="magnify"><defs><filter height="300%" id="f1mlyp4kf098ua" width="300%" x="-1" y="-1"><feGaussianBlur result="blurOut" stdDeviation="2.0"/><feColorMatrix in="blurOut" result="blurOut2" type="matrix" values="0 0 0 0 0 0 0 0 0 0 0 0 0 0 0 0 0 0 .4 0"/><feOffset dx="4.0" dy="4.0" in="blurOut2" result="blurOut3"/><feBlend in="SourceGraphic" in2="blurOut3" mode="normal"/></filter></defs><g><line style="stroke:#A80036;stroke-width:1.0;stroke-dasharray:5.0,5.0;" x1="24" x2="24" y1="88.2969" y2="287.3594"/><line style="stroke:#A80036;stroke-width:1.0;stroke-dasharray:5.0,5.0;" x1="247" x2="247" y1="88.2969" y2="287.3594"/><line style="stroke:#A80036;stroke-width:1.0;stroke-dasharray:5.0,5.0;" x1="547" x2="547" y1="88.2969" y2="287.3594"/><text fill="#000000" font-family="sans-serif" font-size="14" lengthAdjust="spacing" textLength="32" x="5" y="84.9951">Alice</text><ellipse cx="24" cy="15" fill="#FEFECE" filter="url(#f1mlyp4kf098ua)" rx="8" ry="8" style="stroke:#A80036;stroke-width:2.0;"/><path d="M24,23 L24,50 M11,31 L37,31 M24,50 L11,65 M24,50 L37,65 " fill="none" filter="url(#f1mlyp4kf098ua)" style="stroke:#A80036;stroke-width:2.0;"/><text fill="#000000" font-family="sans-serif" font-size="14" lengthAdjust="spacing" textLength="32" x="5" y="299.3545">Alice</text><ellipse cx="24" cy="312.6563" fill="#FEFECE" filter="url(#f1mlyp4kf098ua)" rx="8" ry="8" style="stroke:#A80036;stroke-width:2.0;"/><path d="M24,320.6563 L24,347.6563 M11,328.6563 L37,328.6563 M24,347.6563 L11,362.6563 M24,347.6563 L37,362.6563 " fill="none" filter="url(#f1mlyp4kf098ua)" style="stroke:#A80036;stroke-width:2.0;"/><rect fill="#FEFECE" filter="url(#f1mlyp4kf098ua)" height="30.2969" style="stroke:#A80036;stroke-width:1.5;" width="74" x="208" y="53"/><text fill="#000000" font-family="sans-serif" font-size="14" lengthAdjust="spacing" textLength="60" x="215" y="72.9951">Mediator</text><rect fill="#FEFECE" filter="url(#f1mlyp4kf098ua)" height="30.2969" style="stroke:#A80036;stroke-width:1.5;" width="74" x="208" y="286.3594"/><text fill="#000000" font-family="sans-serif" font-size="14" lengthAdjust="spacing" textLength="60" x="215" y="306.3545">Mediator</text><text fill="#000000" font-family="sans-serif" font-size="14" lengthAdjust="spacing" textLength="28" x="530" y="84.9951">Bob</text><ellipse cx="547" cy="15" fill="#FEFECE" filter="url(#f1mlyp4kf098ua)" rx="8" ry="8" style="stroke:#A80036;stroke-width:2.0;"/><path d="M547,23 L547,50 M534,31 L560,31 M547,50 L534,65 M547,50 L560,65 " fill="none" filter="url(#f1mlyp4kf098ua)" style="stroke:#A80036;stroke-width:2.0;"/><text fill="#000000" font-family="sans-serif" font-size="14" lengthAdjust="spacing" textLength="28" x="530" y="299.3545">Bob</text><ellipse cx="547" cy="312.6563" fill="#FEFECE" filter="url(#f1mlyp4kf098ua)" rx="8" ry="8" style="stroke:#A80036;stroke-width:2.0;"/><path d="M547,320.6563 L547,347.6563 M534,328.6563 L560,328.6563 M547,347.6563 L534,362.6563 M547,347.6563 L560,362.6563 " fill="none" filter="url(#f1mlyp4kf098ua)" style="stroke:#A80036;stroke-width:2.0;"/><rect fill="#FFFFFF" filter="url(#f1mlyp4kf098ua)" height="55.3984" style="stroke:#000000;stroke-width:2.0;" width="283" x="2" y="98.2969"/><polygon fill="#EEEEEE" points="2,98.2969,68,98.2969,68,105.2969,58,115.2969,2,115.2969,2,98.2969" style="stroke:#000000;stroke-width:2.0;"/><text fill="#000000" font-family="sans-serif" font-size="13" font-weight="bold" lengthAdjust="spacing" textLength="21" x="15" y="112.3638">ref</text><text fill="#000000" font-family="sans-serif" font-size="13" lengthAdjust="spacing" textLength="103" x="59.5" y="131.3638">simplex channel</text><text fill="#000000" font-family="sans-serif" font-size="13" lengthAdjust="spacing" textLength="172" x="59.5" y="146.4966">[application/ssi-agent-wire]</text><polygon fill="#A80036" points="235,175.8281,245,179.8281,235,183.8281,239,179.8281" style="stroke:#A80036;stroke-width:1.0;"/><line style="stroke:#A80036;stroke-width:1.0;" x1="24" x2="241" y1="179.8281" y2="179.8281"/><text fill="#000000" font-family="sans-serif" font-size="13" lengthAdjust="spacing" textLength="199" x="31" y="174.7622">send message via http request</text><rect fill="#FFFFFF" filter="url(#f1mlyp4kf098ua)" height="55.3984" style="stroke:#000000;stroke-width:2.0;" width="370" x="205" y="187.8281"/><polygon fill="#EEEEEE" points="205,187.8281,271,187.8281,271,194.8281,261,204.8281,205,204.8281,205,187.8281" style="stroke:#000000;stroke-width:2.0;"/><text fill="#000000" font-family="sans-serif" font-size="13" font-weight="bold" lengthAdjust="spacing" textLength="21" x="218" y="201.895">ref</text><text fill="#000000" font-family="sans-serif" font-size="13" lengthAdjust="spacing" textLength="185" x="211" y="220.895">Mediator find actual recipient</text><text fill="#000000" font-family="sans-serif" font-size="13" lengthAdjust="spacing" textLength="362" x="211" y="236.0278">that was binded to the Http endpoint in Grand procedure</text><polygon fill="#A80036" points="535,265.3594,545,269.3594,535,273.3594,539,269.3594" style="stroke:#A80036;stroke-width:1.0;"/><line style="stroke:#A80036;stroke-width:1.0;" x1="247" x2="541" y1="269.3594" y2="269.3594"/><text fill="#000000" font-family="sans-serif" font-size="13" lengthAdjust="spacing" textLength="112" x="254" y="264.2935">delivery message</text><!--MD5=[110d696f5d8f698ff554545a79e34939]
@startuml
actor Alice
participant Mediator
actor Bob
ref over Alice, Mediator : simplex channel\n[application/ssi-agent-wire]
Alice -> Mediator : send message via http request
ref over Mediator
Mediator find actual recipient 
that was binded to the Http endpoint in Grand procedure
end ref
Mediator -> Bob : delivery message
@enduml

PlantUML version 1.2021.7(Sun May 23 12:40:07 UTC 2021)
(GPL source distribution)
Java Runtime: OpenJDK Runtime Environment
JVM: OpenJDK 64-Bit Server VM
Default Encoding: UTF-8
Language: en
Country: null
--></g></svg>