<?xml version="1.0" encoding="UTF-8" standalone="no"?><svg xmlns="http://www.w3.org/2000/svg" xmlns:xlink="http://www.w3.org/1999/xlink" contentScriptType="application/ecmascript" contentStyleType="text/css" height="311px" preserveAspectRatio="none" style="width:519px;height:311px;background:#FFFFFF;" version="1.1" viewBox="0 0 519 311" width="519px" zoomAndPan="magnify"><defs><filter height="300%" id="f16u5cfem22vpr" width="300%" x="-1" y="-1"><feGaussianBlur result="blurOut" stdDeviation="2.0"/><feColorMatrix in="blurOut" result="blurOut2" type="matrix" values="0 0 0 0 0 0 0 0 0 0 0 0 0 0 0 0 0 0 .4 0"/><feOffset dx="4.0" dy="4.0" in="blurOut2" result="blurOut3"/><feBlend in="SourceGraphic" in2="blurOut3" mode="normal"/></filter></defs><g><rect fill="#FFFFFF" filter="url(#f16u5cfem22vpr)" height="164.7969" style="stroke:#000000;stroke-width:2.0;" width="495" x="10" y="86.4297"/><rect fill="#FFFFFF" filter="url(#f16u5cfem22vpr)" height="104.5313" style="stroke:#000000;stroke-width:2.0;" width="475" x="20" y="139.6953"/><line style="stroke:#A80036;stroke-width:1.0;stroke-dasharray:5.0,5.0;" x1="69" x2="69" y1="40.2969" y2="268.2266"/><line style="stroke:#A80036;stroke-width:1.0;stroke-dasharray:5.0,5.0;" x1="311" x2="311" y1="40.2969" y2="268.2266"/><rect fill="#FEFECE" filter="url(#f16u5cfem22vpr)" height="30.2969" style="stroke:#A80036;stroke-width:1.5;" width="74" x="30" y="5"/><text fill="#000000" font-family="sans-serif" font-size="14" lengthAdjust="spacing" textLength="60" x="37" y="24.9951">Mediator</text><rect fill="#FEFECE" filter="url(#f16u5cfem22vpr)" height="30.2969" style="stroke:#A80036;stroke-width:1.5;" width="74" x="30" y="267.2266"/><text fill="#000000" font-family="sans-serif" font-size="14" lengthAdjust="spacing" textLength="60" x="37" y="287.2217">Mediator</text><rect fill="#FEFECE" filter="url(#f16u5cfem22vpr)" height="30.2969" style="stroke:#A80036;stroke-width:1.5;" width="64" x="277" y="5"/><text fill="#000000" font-family="sans-serif" font-size="14" lengthAdjust="spacing" textLength="50" x="284" y="24.9951">AgentX</text><rect fill="#FEFECE" filter="url(#f16u5cfem22vpr)" height="30.2969" style="stroke:#A80036;stroke-width:1.5;" width="64" x="277" y="267.2266"/><text fill="#000000" font-family="sans-serif" font-size="14" lengthAdjust="spacing" textLength="50" x="284" y="287.2217">AgentX</text><polygon fill="#A80036" points="299,67.4297,309,71.4297,299,75.4297,303,71.4297" style="stroke:#A80036;stroke-width:1.0;"/><line style="stroke:#A80036;stroke-width:1.0;" x1="69" x2="305" y1="71.4297" y2="71.4297"/><text fill="#000000" font-family="sans-serif" font-size="13" lengthAdjust="spacing" textLength="164" x="76" y="66.3638">invitation (AriesRFC 0160)</text><path d="M10,86.4297 L282,86.4297 L282,93.4297 L272,103.4297 L10,103.4297 L10,86.4297 " fill="#EEEEEE" style="stroke:#000000;stroke-width:1.0;"/><rect fill="none" height="164.7969" style="stroke:#000000;stroke-width:2.0;" width="495" x="10" y="86.4297"/><text fill="#000000" font-family="sans-serif" font-size="13" font-weight="bold" lengthAdjust="spacing" textLength="227" x="25" y="99.4966">Services provided by mediator</text><polygon fill="#A80036" points="80,120.6953,70,124.6953,80,128.6953,76,124.6953" style="stroke:#A80036;stroke-width:1.0;"/><line style="stroke:#A80036;stroke-width:1.0;" x1="74" x2="310" y1="124.6953" y2="124.6953"/><text fill="#000000" font-family="sans-serif" font-size="13" lengthAdjust="spacing" textLength="85" x="86" y="119.6294">establish P2P</text><path d="M20,139.6953 L490,139.6953 L490,146.6953 L480,156.6953 L20,156.6953 L20,139.6953 " fill="#EEEEEE" style="stroke:#000000;stroke-width:1.0;"/><rect fill="none" height="104.5313" style="stroke:#000000;stroke-width:2.0;" width="475" x="20" y="139.6953"/><text fill="#000000" font-family="sans-serif" font-size="13" font-weight="bold" lengthAdjust="spacing" textLength="425" x="35" y="152.7622">Mediator route all traffic from endpoint to AgentX device</text><polygon fill="#A80036" points="80,173.9609,70,177.9609,80,181.9609,76,177.9609" style="stroke:#A80036;stroke-width:1.0;"/><line style="stroke:#A80036;stroke-width:1.0;" x1="74" x2="310" y1="177.9609" y2="177.9609"/><text fill="#000000" font-family="sans-serif" font-size="13" lengthAdjust="spacing" textLength="218" x="86" y="172.895">Request endpoint [AriesRFC 0211]</text><polygon fill="#A80036" points="299,203.0938,309,207.0938,299,211.0938,303,207.0938" style="stroke:#A80036;stroke-width:1.0;"/><line style="stroke:#A80036;stroke-width:1.0;" x1="69" x2="305" y1="207.0938" y2="207.0938"/><text fill="#000000" font-family="sans-serif" font-size="13" lengthAdjust="spacing" textLength="125" x="76" y="202.0278">Grant endpoint URL</text><polygon fill="#A80036" points="80,232.2266,70,236.2266,80,240.2266,76,236.2266" style="stroke:#A80036;stroke-width:1.0;"/><line style="stroke:#A80036;stroke-width:1.0;" x1="74" x2="310" y1="236.2266" y2="236.2266"/><text fill="#000000" font-family="sans-serif" font-size="13" lengthAdjust="spacing" textLength="135" x="86" y="231.1606">manage routing keys</text><!--MD5=[5c53ecee807289ec6a0280bbee68ce6b]
@startuml
Mediator -> AgentX: invitation (AriesRFC 0160)
group Services provided by mediator
AgentX -> Mediator: establish P2P
group Mediator route all traffic from endpoint to AgentX device
AgentX -> Mediator : Request endpoint [AriesRFC 0211]
Mediator -> AgentX : Grant endpoint URL
AgentX -> Mediator : manage routing keys
end
end
@enduml

PlantUML version 1.2021.7(Sun May 23 12:40:07 UTC 2021)
(GPL source distribution)
Java Runtime: OpenJDK Runtime Environment
JVM: OpenJDK 64-Bit Server VM
Default Encoding: UTF-8
Language: en
Country: null
--></g></svg>