<?xml version="1.0" encoding="UTF-8" standalone="no"?><svg xmlns="http://www.w3.org/2000/svg" xmlns:xlink="http://www.w3.org/1999/xlink" contentScriptType="application/ecmascript" contentStyleType="text/css" height="407px" preserveAspectRatio="none" style="width:823px;height:407px;background:#FFFFFF;" version="1.1" viewBox="0 0 823 407" width="823px" zoomAndPan="magnify"><defs><filter height="300%" id="f1cthz2fka831" width="300%" x="-1" y="-1"><feGaussianBlur result="blurOut" stdDeviation="2.0"/><feColorMatrix in="blurOut" result="blurOut2" type="matrix" values="0 0 0 0 0 0 0 0 0 0 0 0 0 0 0 0 0 0 .4 0"/><feOffset dx="4.0" dy="4.0" in="blurOut2" result="blurOut3"/><feBlend in="SourceGraphic" in2="blurOut3" mode="normal"/></filter></defs><g><rect fill="#FFFFFF" filter="url(#f1cthz2fka831)" height="275.2266" style="stroke:#A80036;stroke-width:1.0;" width="10" x="167" y="71.4297"/><rect fill="#FFFFFF" filter="url(#f1cthz2fka831)" height="172.8281" style="stroke:#A80036;stroke-width:1.0;" width="10" x="172" y="108.5625"/><rect fill="#005500" filter="url(#f1cthz2fka831)" height="103.5625" style="stroke:#A80036;stroke-width:1.0;" width="10" x="451" y="142.6953"/><line style="stroke:#A80036;stroke-width:1.0;stroke-dasharray:5.0,5.0;" x1="45" x2="45" y1="40.2969" y2="364.6563"/><line style="stroke:#A80036;stroke-width:1.0;stroke-dasharray:5.0,5.0;" x1="171.5" x2="171.5" y1="40.2969" y2="364.6563"/><line style="stroke:#A80036;stroke-width:1.0;stroke-dasharray:5.0,5.0;" x1="455.5" x2="455.5" y1="40.2969" y2="364.6563"/><line style="stroke:#A80036;stroke-width:1.0;stroke-dasharray:5.0,5.0;" x1="771" x2="771" y1="183.3438" y2="364.6563"/><rect fill="#FEFECE" filter="url(#f1cthz2fka831)" height="30.2969" style="stroke:#A80036;stroke-width:1.5;" width="76" x="5" y="5"/><text fill="#000000" font-family="sans-serif" font-size="14" lengthAdjust="spacing" textLength="62" x="12" y="24.9951">Endpoint</text><rect fill="#FEFECE" filter="url(#f1cthz2fka831)" height="30.2969" style="stroke:#A80036;stroke-width:1.5;" width="76" x="5" y="363.6563"/><text fill="#000000" font-family="sans-serif" font-size="14" lengthAdjust="spacing" textLength="62" x="12" y="383.6514">Endpoint</text><rect fill="#FEFECE" filter="url(#f1cthz2fka831)" height="30.2969" style="stroke:#A80036;stroke-width:1.5;" width="87" x="126.5" y="5"/><text fill="#000000" font-family="sans-serif" font-size="14" lengthAdjust="spacing" textLength="73" x="133.5" y="24.9951">Redis Pool</text><rect fill="#FEFECE" filter="url(#f1cthz2fka831)" height="30.2969" style="stroke:#A80036;stroke-width:1.5;" width="87" x="126.5" y="363.6563"/><text fill="#000000" font-family="sans-serif" font-size="14" lengthAdjust="spacing" textLength="73" x="133.5" y="383.6514">Redis Pool</text><rect fill="#FEFECE" filter="url(#f1cthz2fka831)" height="30.2969" style="stroke:#A80036;stroke-width:1.5;" width="111" x="398.5" y="5"/><text fill="#000000" font-family="sans-serif" font-size="14" lengthAdjust="spacing" textLength="97" x="405.5" y="24.9951">redis instance</text><rect fill="#FEFECE" filter="url(#f1cthz2fka831)" height="30.2969" style="stroke:#A80036;stroke-width:1.5;" width="111" x="398.5" y="363.6563"/><text fill="#000000" font-family="sans-serif" font-size="14" lengthAdjust="spacing" textLength="97" x="405.5" y="383.6514">redis instance</text><rect fill="#FEFECE" filter="url(#f1cthz2fka831)" height="30.2969" style="stroke:#A80036;stroke-width:1.5;" width="79" x="730" y="363.6563"/><text fill="#000000" font-family="sans-serif" font-size="14" lengthAdjust="spacing" textLength="65" x="737" y="383.6514">Recipient</text><rect fill="#FFFFFF" filter="url(#f1cthz2fka831)" height="275.2266" style="stroke:#A80036;stroke-width:1.0;" width="10" x="167" y="71.4297"/><rect fill="#FFFFFF" filter="url(#f1cthz2fka831)" height="172.8281" style="stroke:#A80036;stroke-width:1.0;" width="10" x="172" y="108.5625"/><rect fill="#005500" filter="url(#f1cthz2fka831)" height="103.5625" style="stroke:#A80036;stroke-width:1.0;" width="10" x="451" y="142.6953"/><polygon fill="#A80036" points="155,67.4297,165,71.4297,155,75.4297,159,71.4297" style="stroke:#A80036;stroke-width:1.0;"/><line style="stroke:#A80036;stroke-width:1.0;" x1="45" x2="161" y1="71.4297" y2="71.4297"/><text fill="#000000" font-family="sans-serif" font-size="13" lengthAdjust="spacing" textLength="96" x="52" y="66.3638">encrypted msg</text><line style="stroke:#A80036;stroke-width:1.0;" x1="177" x2="224" y1="95.5625" y2="95.5625"/><line style="stroke:#A80036;stroke-width:1.0;" x1="224" x2="224" y1="95.5625" y2="108.5625"/><line style="stroke:#A80036;stroke-width:1.0;" x1="183" x2="224" y1="108.5625" y2="108.5625"/><polygon fill="#A80036" points="193,104.5625,183,108.5625,193,112.5625,189,108.5625" style="stroke:#A80036;stroke-width:1.0;"/><text fill="#000000" font-family="sans-serif" font-size="13" lengthAdjust="spacing" textLength="134" x="189" y="90.4966">choise redis instance</text><polygon fill="#A80036" points="439,138.6953,449,142.6953,439,146.6953,443,142.6953" style="stroke:#A80036;stroke-width:1.0;"/><line style="stroke:#A80036;stroke-width:1.0;" x1="182" x2="445" y1="142.6953" y2="142.6953"/><text fill="#000000" font-family="sans-serif" font-size="13" lengthAdjust="spacing" textLength="250" x="189" y="137.6294">route encrypted msg to [redis channel]</text><polygon fill="#A80036" points="718,167.8281,728,171.8281,718,175.8281,722,171.8281" style="stroke:#A80036;stroke-width:1.0;"/><line style="stroke:#A80036;stroke-width:1.0;" x1="461" x2="724" y1="171.8281" y2="171.8281"/><text fill="#000000" font-family="sans-serif" font-size="13" lengthAdjust="spacing" textLength="245" x="468" y="166.7622">route to websocket/long-polling socket</text><rect fill="#FEFECE" filter="url(#f1cthz2fka831)" height="30.2969" style="stroke:#A80036;stroke-width:1.5;" width="79" x="730" y="150.6953"/><text fill="#000000" font-family="sans-serif" font-size="14" lengthAdjust="spacing" textLength="65" x="737" y="170.6904">Recipient</text><polygon fill="#A80036" points="472,213.125,462,217.125,472,221.125,468,217.125" style="stroke:#A80036;stroke-width:1.0;"/><line style="stroke:#A80036;stroke-width:1.0;" x1="466" x2="770.5" y1="217.125" y2="217.125"/><text fill="#000000" font-family="sans-serif" font-size="13" lengthAdjust="spacing" textLength="22" x="478" y="212.0591">ack</text><polygon fill="#A80036" points="193,242.2578,183,246.2578,193,250.2578,189,246.2578" style="stroke:#A80036;stroke-width:1.0;"/><line style="stroke:#A80036;stroke-width:1.0;stroke-dasharray:2.0,2.0;" x1="187" x2="455" y1="246.2578" y2="246.2578"/><text fill="#000000" font-family="sans-serif" font-size="13" lengthAdjust="spacing" textLength="32" x="199" y="241.1919">done</text><line style="stroke:#A80036;stroke-width:1.0;stroke-dasharray:2.0,2.0;" x1="182" x2="224" y1="280.3906" y2="280.3906"/><line style="stroke:#A80036;stroke-width:1.0;stroke-dasharray:2.0,2.0;" x1="224" x2="224" y1="280.3906" y2="293.3906"/><line style="stroke:#A80036;stroke-width:1.0;stroke-dasharray:2.0,2.0;" x1="177" x2="224" y1="293.3906" y2="293.3906"/><polygon fill="#A80036" points="187,289.3906,177,293.3906,187,297.3906,183,293.3906" style="stroke:#A80036;stroke-width:1.0;"/><text fill="#000000" font-family="sans-serif" font-size="13" lengthAdjust="spacing" textLength="146" x="189" y="275.3247">redis delivery success?</text><polygon fill="#A80036" points="759.5,313.5234,769.5,317.5234,759.5,321.5234,763.5,317.5234" style="stroke:#A80036;stroke-width:1.0;"/><line style="stroke:#A80036;stroke-width:1.0;" x1="177" x2="765.5" y1="317.5234" y2="317.5234"/><text fill="#000000" font-family="sans-serif" font-size="13" lengthAdjust="spacing" textLength="195" x="184" y="312.4575">if no, try to deliver via Firebase</text><line style="stroke:#A80036;stroke-width:2.0;" x1="762.5" x2="780.5" y1="308.5234" y2="326.5234"/><line style="stroke:#A80036;stroke-width:2.0;" x1="762.5" x2="780.5" y1="326.5234" y2="308.5234"/><polygon fill="#A80036" points="56,342.6563,46,346.6563,56,350.6563,52,346.6563" style="stroke:#A80036;stroke-width:1.0;"/><line style="stroke:#A80036;stroke-width:1.0;stroke-dasharray:2.0,2.0;" x1="50" x2="171" y1="346.6563" y2="346.6563"/><text fill="#000000" font-family="sans-serif" font-size="13" lengthAdjust="spacing" textLength="98" x="62" y="341.5903">http status 202</text><!--MD5=[72db1b15a83bbf997de0f20781099954]
@startuml
Endpoint -> "Redis Pool" ++ : encrypted msg
"Redis Pool" -> "Redis Pool" ++ : choise redis instance
"Redis Pool" -> "redis instance" ++ #005500 : route encrypted msg to [redis channel]
"redis instance" -> Recipient ** : route to websocket/long-polling socket
"Recipient" -> "redis instance" : ack
return done
return redis delivery success?
"Redis Pool" -> Recipient !! : if no, try to deliver via Firebase
return http status 202
@enduml

PlantUML version 1.2021.7(Sun May 23 12:40:07 UTC 2021)
(GPL source distribution)
Java Runtime: OpenJDK Runtime Environment
JVM: OpenJDK 64-Bit Server VM
Default Encoding: UTF-8
Language: en
Country: null
--></g></svg>